Coordinates
version=1
nRows=10
nColumns=63
inDegrees=yes

Units are S.I. units (second, meters, Newtons, ...)
If the header above contains a line with 'inDegrees', this indicates whether rotational values are in degrees (yes) or radians (no).

endheader
time	pelvis_tilt	pelvis_list	pelvis_rotation	pelvis_tx	pelvis_ty	pelvis_tz	hip_flexion_r	hip_adduction_r	hip_rotation_r	knee_angle_r	knee_angle_r_beta	ankle_angle_r	subtalar_angle_r	mtp_angle_r	hip_flexion_l	hip_adduction_l	hip_rotation_l	knee_angle_l	knee_angle_l_beta	ankle_angle_l	subtalar_angle_l	mtp_angle_l	L5_S1_Flex_Ext	L5_S1_Lat_Bending	L5_S1_axial_rotation	L4_L5_Flex_Ext	L4_L5_Lat_Bending	L4_L5_axial_rotation	L3_L4_Flex_Ext	L3_L4_Lat_Bending	L3_L4_axial_rotation	L2_L3_Flex_Ext	L2_L3_Lat_Bending	L2_L3_axial_rotation	L1_L2_Flex_Ext	L1_L2_Lat_Bending	L1_L2_axial_rotation	L1_T12_Flex_Ext	L1_T12_Lat_Bending	L1_T12_axial_rotation	Abs_r3	Abs_r2	Abs_r1	Abs_t1	Abs_t2	neck_flexion	neck_bending	neck_rotation	arm_flex_r	arm_add_r	arm_rot_r	elbow_flex_r	pro_sup_r	wrist_flex_r	wrist_dev_r	arm_flex_l	arm_add_l	arm_rot_l	elbow_flex_l	pro_sup_l	wrist_flex_l	wrist_dev_l
     10.13333333	      5.69074733	     -0.28148405	    178.00674097	      2.70407170	      0.88542350	      0.61467015	     15.04751841	      0.10825873	     -4.97144552	     25.04676841	      0.43714858	     23.32311795	     -4.44172277	      0.00000000	      8.10762899	      0.85452959	      8.62038130	     14.00418038	      0.24441906	     17.08824511	    -17.43501775	      0.00000000	     -0.00053491	     -0.18142109	     -1.09547951	     -0.00099338	     -0.24129005	     -1.16394698	     -0.00087881	     -0.44110724	     -1.16394698	     -0.00061135	     -0.44110724	     -0.95854457	     -0.00049672	     -0.36995389	     -0.89007710	     -0.00030565	     -0.28102127	     -0.82160963	     -0.00382082	     -2.05227165	     -6.09272840	      0.00000000	      0.00000000	      0.00000000	      0.00000000	     -0.00000000	      2.47754725	    -12.27573309	     73.12755531	     20.66423242	     57.76030119	      0.00000000	      5.00000014	    -17.05487440	     -3.18307147	     -3.27229688	     25.59264587	     55.69574879	      0.00000000	      5.00000014
     10.16666667	      5.55046145	     -0.51480201	    177.82559211	      2.70418421	      0.88627018	      0.61481774	     14.87451622	     -0.09722778	     -4.68873252	     24.83818671	      0.43350814	     23.17941360	     -4.39310526	      0.00000000	      7.99433973	      1.12633638	      7.67627975	     13.91817299	      0.24291794	     16.87671353	    -17.15597942	      0.00000000	     -0.00110076	     -0.18422314	     -0.95185602	     -0.00204422	     -0.24501678	     -1.01134702	     -0.00180843	     -0.44792015	     -1.01134702	     -0.00125806	     -0.44792015	     -0.83287401	     -0.00102216	     -0.37566784	     -0.77338301	     -0.00062897	     -0.28536165	     -0.71389201	     -0.00786260	     -2.08396905	     -5.29393760	      0.00000000	      0.00000000	      0.00000000	      0.00000000	     -0.00000000	      1.87633164	    -12.23598024	     70.80144593	     20.46426149	     57.05719855	      0.00000000	      5.00000014	    -16.45142879	     -4.61140969	      2.41546477	     25.00099571	     56.76611079	      0.00000000	      5.00000014
     10.20000000	      5.43721713	     -0.85453646	    177.88002711	      2.70407040	      0.88730713	      0.61558006	     14.56431904	     -0.44971921	     -4.48119432	     24.35667328	      0.42510414	     23.09683924	     -4.33319718	      0.00000000	      8.10222863	      1.56519584	      6.92610194	     14.18123553	      0.24750925	     16.55304154	    -17.36651357	      0.00000000	     -0.00086316	     -0.20733556	     -0.89747227	     -0.00160297	     -0.27575629	     -0.95356429	     -0.00141808	     -0.50411568	     -0.95356429	     -0.00098650	     -0.50411568	     -0.78528824	     -0.00080153	     -0.42279867	     -0.72919622	     -0.00049321	     -0.32116278	     -0.67310420	     -0.00616546	     -2.34542131	     -4.99147153	      0.00000000	      0.00000000	      0.00000000	      0.00000000	     -0.00000000	      1.72303590	    -12.23742252	     70.72145005	     20.27622764	     57.03669718	      0.00000000	      5.00000014	    -16.22432872	     -4.59260204	      2.52014559	     24.63612463	     56.77285323	      0.00000000	      5.00000014
     10.23333333	      5.31697680	     -1.27214222	    177.31531071	      2.70368323	      0.88838842	      0.61578553	     14.22136145	     -0.58142771	     -2.84836022	     23.73540422	      0.41426095	     22.84723580	     -5.20573074	      0.00000000	      8.15442169	      1.94865560	      5.15986846	     14.42387405	      0.25174409	     16.53880469	    -17.31542593	      0.00000000	     -0.00180087	     -0.24485155	     -0.75071444	     -0.00334440	     -0.32565256	     -0.79763409	     -0.00295865	     -0.59533205	     -0.79763409	     -0.00205822	     -0.59533205	     -0.65687513	     -0.00167229	     -0.49930127	     -0.60995548	     -0.00102902	     -0.37927504	     -0.56303583	     -0.01286344	     -2.76980965	     -4.17524849	      0.00000000	      0.00000000	      0.00000000	      0.00000000	     -0.00000000	      1.47687746	    -12.20931827	     70.14539650	     20.02899200	     56.83773708	      0.00000000	      5.00000014	    -15.90608869	     -4.21072868	      2.50575234	     23.86245307	     56.48377012	      0.00000000	      5.00000014
     10.26666667	      5.26542348	     -1.58091597	    177.06428980	      2.70322500	      0.88925405	      0.61601063	     13.71528366	     -0.36627224	     -0.00915487	     22.75048569	      0.39707088	     22.02323076	     -8.30554215	      0.00000000	      8.42232974	      2.23833484	      4.03233098	     14.97233065	      0.26131647	     16.53683834	    -17.60544134	      0.00000000	     -0.00281067	     -0.28208405	     -0.70803475	     -0.00521969	     -0.37517178	     -0.75228692	     -0.00461765	     -0.68585915	     -0.75228692	     -0.00321231	     -0.68585915	     -0.61953041	     -0.00260999	     -0.57522579	     -0.57527823	     -0.00160602	     -0.43694819	     -0.53102606	     -0.02007632	     -3.19099117	     -3.93787686	      0.00000000	      0.00000000	      0.00000000	      0.00000000	     -0.00000000	      1.36871826	    -12.17024121	     69.86816068	     19.88357961	     56.70151030	      0.00000000	      5.00000014	    -15.91017350	     -3.25599694	     -0.18945022	     23.40365161	     55.02130285	      0.00000000	      5.00000014
     10.30000000	      5.27976590	     -1.75199005	    176.80146608	      2.70280182	      0.88969680	      0.61609877	     13.29519602	     -0.13664315	      2.42936221	     21.91604776	      0.38250719	     21.31436808	    -10.81905791	      0.00000000	      8.71093016	      2.36484144	      3.33135246	     15.52065892	      0.27088660	     16.59792271	    -17.90268327	      0.00000000	     -0.00342581	     -0.30978366	     -0.70628346	     -0.00636207	     -0.41201227	     -0.75042618	     -0.00562826	     -0.75320800	     -0.75042618	     -0.00391536	     -0.75320800	     -0.61799803	     -0.00318121	     -0.63171084	     -0.57385531	     -0.00195751	     -0.47985489	     -0.52971260	     -0.02447022	     -3.50433475	     -3.92813674	      0.00000000	      0.00000000	      0.00000000	      0.00000000	     -0.00000000	      1.53086207	    -12.20622209	     70.60498702	     19.85587788	     56.75947942	      0.00000000	      5.00000014	    -16.09507527	     -2.32660771	     -2.98319439	     23.21943909	     53.25271524	      0.00000000	      5.00000014
     10.33333333	      5.35695698	     -1.80683763	    176.64188641	      2.70255598	      0.88965983	      0.61619560	     13.21393588	     -0.07390931	      3.49868023	     21.68511150	      0.37847659	     21.16761071	    -11.58675642	      0.00000000	      8.99010165	      2.38065038	      3.20907826	     15.99882973	      0.27923226	     16.72590185	    -18.10491217	      0.00000000	     -0.00416064	     -0.32698574	     -0.75188091	     -0.00772672	     -0.43489103	     -0.79887346	     -0.00683551	     -0.79503312	     -0.79887346	     -0.00475519	     -0.79503312	     -0.65789579	     -0.00386357	     -0.66678931	     -0.61090324	     -0.00237739	     -0.50650090	     -0.56391068	     -0.02971901	     -3.69892803	     -4.18173605	      0.00000000	      0.00000000	      0.00000000	      0.00000000	     -0.00000000	      1.78041493	    -12.27653026	     71.24747050	     19.96126086	     56.93708525	      0.00000000	      5.00000014	    -16.34188208	     -1.77118824	     -4.26733849	     23.18107744	     52.39866033	      0.00000000	      5.00000014
     10.36666667	      5.46610554	     -1.87219145	    176.25935632	      2.70269670	      0.88915735	      0.61595456	     13.64535159	     -0.20236951	      3.45573611	     22.33838470	      0.38987836	     21.64999240	    -10.67211428	      0.00000000	      9.26479626	      2.37674298	      3.12072324	     16.42548431	      0.28667878	     16.95797247	    -18.24535187	      0.00000000	     -0.00408716	     -0.34520291	     -0.75970703	     -0.00759027	     -0.45911987	     -0.80718872	     -0.00671480	     -0.83932636	     -0.80718872	     -0.00467122	     -0.83932636	     -0.66474365	     -0.00379534	     -0.70393778	     -0.61726196	     -0.00233540	     -0.53471931	     -0.56978027	     -0.02919418	     -3.90500437	     -4.22526257	      0.00000000	      0.00000000	      0.00000000	      0.00000000	     -0.00000000	      2.00640424	    -12.33028380	     71.51295281	     20.16329409	     56.43525532	      0.00000000	      5.00000014	    -16.54735323	     -1.38133651	     -4.99327741	     23.13708919	     51.73017223	      0.00000000	      5.00000014
     10.40000000	      5.57096591	     -1.96112657	    175.90307479	      2.70306287	      0.88839294	      0.61561697	     14.33716690	     -0.41029126	      2.85475973	     23.48674847	      0.40992109	     22.30593937	     -9.42349368	      0.00000000	      9.46340923	      2.39742782	      2.99082108	     16.64345977	      0.29048317	     17.23818102	    -18.31973224	      0.00000000	     -0.00413263	     -0.36901653	     -0.80021228	     -0.00767471	     -0.49079198	     -0.85022555	     -0.00678950	     -0.89722679	     -0.85022555	     -0.00472318	     -0.89722679	     -0.70018575	     -0.00383756	     -0.75249851	     -0.65017248	     -0.00236138	     -0.57160660	     -0.60015921	     -0.02951896	     -4.17438878	     -4.45054065	      0.00000000	      0.00000000	      0.00000000	      0.00000000	     -0.00000000	      3.02630627	    -12.37041647	     75.60505269	     20.27587767	     58.86070993	      0.00000000	      5.00000014	    -16.92398224	     -0.27279942	     -9.58812760	     23.50364535	     49.50692055	      0.00000000	      5.00000014
     10.43333333	      5.71503340	     -2.09049775	    175.61643637	      2.70352315	      0.88751738	      0.61541281	     15.08709326	     -0.75221035	      1.69026455	     24.65253529	      0.43026791	     23.08888718	     -7.63244677	      0.00000000	      9.68063055	      2.47588364	      2.77016763	     16.72822090	      0.29196253	     17.49219356	    -18.42415561	      0.00000000	     -0.00379265	     -0.39499112	     -0.85024917	     -0.00704334	     -0.52533819	     -0.90338975	     -0.00623095	     -0.96038141	     -0.90338975	     -0.00433463	     -0.96038141	     -0.74396803	     -0.00352186	     -0.80546589	     -0.69082745	     -0.00216712	     -0.61184124	     -0.63768688	     -0.02709055	     -4.46821854	     -4.72883082	      0.00000000	      0.00000000	      0.00000000	      0.00000000	     -0.00000000	      3.35251765	    -12.33822011	     75.67785394	     20.55111073	     59.63772805	      0.00000000	      5.00000014	    -17.20557677	      0.38235282	    -11.93167824	     23.80591742	     49.16700285	      0.00000000	      5.00000014
